<svg width="213" height="215" viewBox="0 0 213 215" fill="none" xmlns="http://www.w3.org/2000/svg">
<path d="M106.5 1C164.775 1 212 48.6907 212 107.5C212 166.309 164.775 214 106.5 214C48.225 214 1 166.309 1 107.5C1 48.6907 48.225 1 106.5 1Z" fill="#250041" stroke="#250041" stroke-width="2"/>
<mask id="mask0_427_159" style="mask-type:alpha" maskUnits="userSpaceOnUse" x="2" y="2" width="209" height="211">
<ellipse cx="106.5" cy="107.5" rx="104.5" ry="105.5" fill="black"/>
</mask>
<g mask="url(#mask0_427_159)">
<path d="M46.3228 92.3618C42.3485 128.361 52.8391 169.658 54.8223 203.861V229L166.325 226V193.862C168.263 160.885 179.546 41.6181 126.728 39.9152C96.1685 38.9299 51.1804 48.3614 46.3228 92.3618Z" fill="#FCF4C3"/>
<path d="M112.386 54.3089C159.897 64.2245 147.558 179.703 147.558 207.683V234.328L56.6395 229.373L56.6396 201.96C55.0659 148.126 13.5442 37.4641 112.386 54.3089Z" fill="#250041"/>
<path d="M135.946 137.416C138.131 129.759 131.848 123.534 126.782 127.3C117.979 133.843 132.878 148.167 135.946 137.416Z" fill="#FCF4C3"/>
</g>
</svg>
