<svg width="219" height="204" viewBox="0 0 219 204" fill="none" xmlns="http://www.w3.org/2000/svg">
<path d="M41.5264 20.2718C70.8782 2.69083 111.846 -0.179848 149.599 1.3607C171.302 2.24638 186.987 10.7431 197.762 23.6361C208.511 36.4994 214.313 53.6652 216.436 71.8295C218.559 90.0008 217.01 109.245 212.988 126.345C208.97 143.43 202.463 158.464 194.601 168.166C163.3 206.789 122.15 203.858 90.1514 200.358C74.109 198.603 54.6639 194.952 38.0889 184.411C21.465 173.84 7.80712 156.39 3.28613 127.232C-1.11919 98.8193 1.04586 76.4955 8.0332 59.0472C15.0262 41.585 26.8194 29.081 41.5264 20.2718Z" fill="black" stroke="black" stroke-width="2" stroke-linecap="round"/>
<mask id="mask0_387_348" style="mask-type:alpha" maskUnits="userSpaceOnUse" x="2" y="2" width="215" height="200">
<path d="M42.5547 21.9875C71.367 4.72978 111.814 1.82109 149.517 3.35961C170.681 4.22328 185.83 12.4772 196.227 24.9182C206.648 37.3889 212.355 54.1409 214.449 72.0618C216.542 89.9757 215.016 108.985 211.041 125.887C207.062 142.805 200.652 157.523 193.047 166.907C162.475 204.631 122.369 201.87 90.3682 198.37C74.4108 196.625 55.3409 193.012 39.1621 182.724C23.0319 172.466 9.69688 155.523 5.2627 126.925C0.895417 98.7579 3.07222 76.8164 9.89062 59.7903C16.7034 42.7783 28.1798 30.5977 42.5547 21.9875Z" fill="black" stroke="black" stroke-width="2" stroke-linecap="round"/>
</mask>
<g mask="url(#mask0_387_348)">
<path d="M54.3228 91.362C50.3485 127.362 60.839 168.658 62.8223 202.862L124.825 209.862L174.325 192.862C176.263 159.886 187.546 40.6183 134.728 38.9154C104.168 37.9302 59.1803 47.3616 54.3228 91.362Z" fill="white"/>
<path d="M120.727 52.1958C168.237 62.1114 155.899 177.59 155.899 205.569V232.214L64.9804 227.26L64.9804 199.847C63.4068 146.013 21.885 35.3511 120.727 52.1958Z" fill="black"/>
<path d="M144.287 135.303C146.472 127.646 140.189 121.421 135.123 125.187C126.32 131.73 141.219 146.054 144.287 135.303Z" fill="white"/>
</g>
</svg>
