<svg width="205" height="207" viewBox="0 0 205 207" fill="none" xmlns="http://www.w3.org/2000/svg">
<path d="M102.5 1C158.566 1 204 46.8829 204 103.462C204 160.041 158.566 205.924 102.5 205.924C46.4342 205.924 1.0001 160.041 1 103.462C1 46.8829 46.4341 1 102.5 1Z" fill="#250041" stroke="#250041" stroke-width="2"/>
<mask id="mask0_427_173" style="mask-type:alpha" maskUnits="userSpaceOnUse" x="2" y="2" width="201" height="203">
<ellipse cx="102.5" cy="103.462" rx="100.5" ry="101.462" fill="black"/>
</mask>
<g mask="url(#mask0_427_173)">
<path d="M44.6266 88.903C40.8044 123.525 50.8934 163.241 52.8007 196.135V220.311L160.035 217.426V186.518C161.899 154.804 172.751 40.1016 121.954 38.4639C92.5643 37.5164 49.2982 46.5868 44.6266 88.903Z" fill="#FCF4C3"/>
<path d="M109.654 52.4373C153.408 61.8038 142.045 172.906 142.045 199.815V225.44L58.3152 221L58.3153 194.636C56.8661 142.868 18.6274 36.5901 109.654 52.4373Z" fill="#250041"/>
<path d="M131.139 131.118C134.188 121.729 125.421 113.98 118.353 118.539C106.071 126.462 126.859 144.301 131.139 131.118Z" fill="#FCF4C3"/>
</g>
</svg>
